<svg width="147" height="122" viewBox="0 0 147 122" fill="none" xmlns="http://www.w3.org/2000/svg">
<path d="M0 24.0253C0 69.488 28.529 106.282 63.7829 106.282L0 24.0253Z" fill="#46455B"/>
<path d="M63.7827 106.291C63.7827 60.3122 95.6243 23.1114 134.969 23.1114L63.7827 106.291Z" fill="#FF5856"/>
<path d="M23.1162 28.1518C23.1162 71.3431 41.3089 106.291 63.7827 106.291L23.1162 28.1518Z" fill="#FF5856"/>
<path d="M63.7827 106.291C63.7827 47.544 100.584 0 146.057 0L63.7827 106.291Z" fill="#46455B"/>
<path opacity="0.1" d="M61.022 122C69.7799 122 76.8795 120.801 76.8795 119.321C76.8795 117.842 69.7799 116.643 61.022 116.643C52.2642 116.643 45.1646 117.842 45.1646 119.321C45.1646 120.801 52.2642 122 61.022 122Z" fill="#FF5856"/>
<path d="M50.3691 106.87C50.3691 106.87 59.4202 106.589 62.1355 104.653C64.8509 102.716 76.047 100.391 76.7259 103.504C77.4047 106.617 90.3025 118.987 80.1019 119.068C69.9013 119.15 56.37 117.475 53.6547 115.819C50.9394 114.164 50.3691 106.87 50.3691 106.87Z" fill="#A8A8A8"/>
<path opacity="0.2" d="M80.2919 117.982C70.0824 118.064 56.5691 116.39 53.8447 114.734C51.772 113.476 50.9484 108.942 50.6678 106.861H50.3691C50.3691 106.861 50.9393 114.154 53.6637 115.81C56.3881 117.466 69.9013 119.14 80.1109 119.059C83.0616 119.059 84.0753 117.982 84.021 116.435C83.6137 117.376 82.5366 117.964 80.2919 117.982Z" fill="black"/>
</svg>
