<svg width="213" height="157" viewBox="0 0 213 157" fill="none" xmlns="http://www.w3.org/2000/svg">
<path d="M131.062 103.612C97.1488 107.258 73.1993 126.697 73.1993 126.697C73.1993 126.697 104.245 140.209 138.164 136.571C172.083 132.933 196.027 113.487 196.027 113.487C196.027 113.487 164.983 99.9684 131.062 103.612Z" fill="#FF5856"/>
<path d="M47.6125 34.6385C41.5454 18.5785 26.9214 7.91132 26.9214 7.91132C26.9214 7.91132 22.1845 23.2212 28.2317 39.2346C34.2789 55.2481 48.9419 65.9185 48.9419 65.9185C48.9419 65.9185 53.7071 50.6228 47.6125 34.6385Z" fill="#FF5856"/>
<path d="M114.19 67.2837C101.904 86.6716 79.4588 95.7402 79.4588 95.7402C79.4588 95.7402 76.9313 73.3622 89.2186 53.9678C101.506 34.5734 123.957 25.5133 123.957 25.5133C123.957 25.5133 126.485 47.8912 114.19 67.2837Z" fill="#46455B"/>
</svg>
