<svg width="192" height="105" viewBox="0 0 192 105" fill="none" xmlns="http://www.w3.org/2000/svg">
<path d="M189.965 97.4181C189.22 99.2611 188.302 101.029 187.225 102.699C186.72 103.495 186.166 104.259 185.566 104.987H0.0251465C0.192103 104.856 1.17214 104.061 2.69645 102.699C3.79002 101.724 5.1624 100.455 6.70341 98.9291L26.259 94.8797C26.5117 94.8274 26.769 94.8011 27.027 94.801L47.8749 94.7709H47.8966L58.2229 94.7575H58.2462L66.9614 94.7475H72.6663H78.5097L102.455 94.714H102.493H104.348H107.607H111.676H112.758L116.87 94.6672H118.229L130.189 94.6504H134.009H135.846L149.662 94.632H153.775L166.861 94.6136L177.907 94.6002C178.215 94.6004 178.521 94.6369 178.821 94.709L189.965 97.4181Z" fill="#454B69"/>
<path opacity="0.4" d="M2.69645 102.699H187.225C186.72 103.495 186.166 104.259 185.566 104.987H0.0251465C0.188764 104.848 1.1688 104.053 2.69645 102.699Z" fill="black"/>
<path d="M122.416 50.6585L122.045 50.7304L105.289 53.9566C100.423 54.8937 95.4858 55.8358 90.5422 55.476C86.961 55.215 83.6152 54.1507 80.1742 53.217C78.2292 52.6882 76.1672 52.4774 75.5078 50.2954C74.5979 47.2834 76.0788 42.8239 76.4277 39.7718C76.7616 36.7765 76.9586 33.7059 76.3643 30.7458C76.2322 30.0806 76.0582 29.4245 75.8433 28.7813C75.2473 27.0093 74.3107 25.1669 74.8166 23.3681C75.2156 21.9407 76.4327 20.9217 77.5713 19.9779C79.8019 18.1373 82.0792 16.074 82.964 13.3147C83.3981 11.976 83.4799 10.5353 83.9474 9.20668C84.834 6.67995 87.0612 4.79075 89.5388 3.7901C92.0164 2.78945 94.7412 2.57693 97.4141 2.57693C99.7743 2.57707 102.132 2.73415 104.471 3.04714C107.022 3.38181 109.597 3.93233 111.839 5.20072C114.081 6.46911 115.971 8.54739 116.494 11.0808C117.234 14.6634 115.18 18.4786 116.282 21.9575C116.836 23.7162 118.118 25.1368 119.008 26.7466C119.734 28.0931 120.182 29.5722 120.325 31.0958C120.469 32.6195 120.305 34.1564 119.843 35.6152C118.778 38.9234 116.17 42.2701 117.506 45.4778C118.355 47.5176 120.526 48.607 122.039 50.2234C122.173 50.3684 122.299 50.5135 122.416 50.6585Z" fill="#454B69"/>
<path opacity="0.1" d="M122.045 50.2368V50.7304L105.29 53.9566C100.423 54.8937 95.4859 55.8358 90.5423 55.476C86.9611 55.215 83.6152 54.1507 80.1743 53.217C78.2292 52.6882 76.1673 52.4774 75.5078 50.2954C74.5979 47.2834 76.0788 42.8239 76.4278 39.7718C76.7617 36.7765 81.9023 25.8413 81.3079 22.8812L112.028 24.2198C112.235 25.8547 120.354 34.0607 119.848 35.6286C118.783 38.9368 116.175 42.2835 117.511 45.4912C118.362 47.531 120.533 48.6204 122.045 50.2368Z" fill="black"/>
<path d="M90.6575 41.9572C90.8394 42.993 90.9363 44.1325 90.4087 45.0361C89.7058 46.2476 88.1732 46.6341 86.8024 46.9086L82.0442 47.8624C81.7203 47.9276 81.3764 48.0012 81.1343 48.2238C80.8488 48.4798 80.7519 48.8848 80.7102 49.2663C80.5182 50.9932 81.1276 52.6949 81.6836 54.3398C82.8072 57.6714 83.7505 61.0733 85.1713 64.2878C86.5921 67.5023 88.5421 70.5712 91.3253 72.7197C94.1085 74.8683 97.7915 76.0128 101.199 75.1728C104.168 74.4416 106.602 72.3416 108.7 70.1143C110.432 68.2737 112.051 66.2657 112.891 63.8778C113.47 62.238 113.659 60.491 113.841 58.7608C114.123 56.108 114.404 53.4552 114.686 50.8024C114.818 49.5574 114.905 48.1569 114.098 47.2014C113.744 46.7814 113.263 46.5019 112.773 46.2426C110.946 45.2704 109.023 44.4672 107.323 43.2958C105.623 42.1245 104.116 40.5114 103.6 38.5101C103.291 37.3086 103.346 36.0001 102.82 34.8806C102.233 33.6256 100.984 32.7756 99.6481 32.4024C98.3124 32.0293 96.9033 32.0795 95.5276 32.2351C94.1519 32.3907 88.8493 32.789 88.28 34.3435C87.9745 35.1802 89.2417 36.9756 89.5422 37.7989C90.0369 39.1489 90.4101 40.5405 90.6575 41.9572Z" fill="#EFB7B9"/>
<path opacity="0.1" d="M90.6575 41.9572C90.8394 42.993 90.9363 44.1325 90.4087 45.0361C89.7058 46.2476 88.1732 46.6341 86.8024 46.9086L82.0442 47.8624C81.7203 47.9276 81.3764 48.0012 81.1343 48.2238C80.8488 48.4798 80.7519 48.8848 80.7102 49.2663C80.5182 50.9932 81.1276 52.6949 81.6836 54.3398C82.8072 57.6714 83.7505 61.0733 85.1713 64.2878C86.5921 67.5023 88.5421 70.5712 91.3253 72.7197C94.1085 74.8683 97.7915 76.0128 101.199 75.1728C104.168 74.4416 106.602 72.3416 108.7 70.1143C110.432 68.2737 112.051 66.2657 112.891 63.8778C113.47 62.238 113.659 60.491 113.841 58.7608C114.123 56.108 114.404 53.4552 114.686 50.8024C114.818 49.5574 114.905 48.1569 114.098 47.2014C113.744 46.7814 113.263 46.5019 112.773 46.2426C110.946 45.2704 109.023 44.4672 107.323 43.2958C105.623 42.1245 104.116 40.5114 103.6 38.5101C103.291 37.3086 103.346 36.0001 102.82 34.8806C102.233 33.6256 100.984 32.7756 99.6481 32.4024C98.3124 32.0293 96.9033 32.0795 95.5276 32.2351C94.1519 32.3907 88.8493 32.789 88.28 34.3435C87.9745 35.1802 89.2417 36.9756 89.5422 37.7989C90.0369 39.1489 90.4101 40.5405 90.6575 41.9572Z" fill="black"/>
<path d="M102.109 60.153L104.899 54.2327C106.206 51.4584 107.542 48.5434 107.403 45.4795C107.376 44.8704 107.37 44.1091 107.904 43.833C108.136 43.738 108.389 43.7057 108.637 43.7393C111.574 43.8898 114.472 44.4774 117.237 45.4829C117.773 45.677 118.322 45.9012 118.698 46.3296C119.073 46.758 119.225 47.3336 119.354 47.8858C119.792 49.7529 120.111 51.6458 120.311 53.5534C120.811 58.2755 120.563 63.0395 120.311 67.7767L119.569 82.2393C119.573 82.4445 119.532 82.648 119.447 82.835C119.264 83.1697 118.85 83.2818 118.477 83.3454C117.043 83.5914 115.577 83.5412 114.125 83.486C103.907 83.0977 93.636 82.502 83.485 83.7436C83.5306 82.2388 83.5067 80.7328 83.4132 79.2257C83.0109 72.7181 81.3279 66.3694 79.6751 60.0643C78.7117 56.383 77.7784 52.367 79.3295 48.8982C79.5575 48.3504 79.8854 47.8499 80.2961 47.4223C80.9556 46.7747 81.8555 46.4333 82.7471 46.189C84.2849 45.7698 85.8778 45.5892 87.4703 45.6536L97.9969 68.6234C98.4777 69.6743 98.8734 70.7803 99.3526 71.8178C99.7833 70.0257 99.2657 67.9256 99.7833 65.9829C100.341 63.9665 101.219 62.0372 102.109 60.153Z" fill="white"/>
<path d="M101.009 75.9576C102.892 76.0764 104.722 75.1093 106.017 73.7421C107.313 72.375 108.168 70.6415 108.891 68.8895C109.93 66.3922 110.756 63.811 111.36 61.1737C111.861 58.9315 112.217 56.6106 111.871 54.3382C111.393 51.2007 109.622 48.3493 109.32 45.1901C109.268 44.6379 109.301 43.992 109.744 43.659C110.018 43.4531 110.378 43.4247 110.719 43.4046C113.868 43.2172 117.327 43.2523 119.766 45.2553C120.509 45.8644 121.112 46.6258 121.838 47.2533C123.568 48.7593 126.012 49.5257 127.122 51.5253C127.51 52.2214 127.695 53.0095 127.966 53.7592C128.603 55.5329 129.707 57.0925 130.804 58.6269C129.74 63.1248 128.518 67.6261 127.455 72.124C126.832 74.7629 126.204 77.4118 125.226 79.9385C124.585 81.5951 123.778 83.2852 123.975 85.0589C124.054 85.7567 124.286 86.4243 124.488 87.097C125.196 89.458 125.528 91.9163 125.471 94.381L77.8318 94.4982C80.1141 91.2184 80.7836 87.1957 80.5515 83.2048C80.4397 81.2922 80.0089 79.3679 79.0489 77.713C77.5363 75.1193 74.875 73.4292 72.2521 71.9818C70.4156 70.9778 68.4439 76.627 66.4587 75.9794C66.7793 73.707 66.9262 64.9354 66.7927 62.6479C66.7492 61.8983 66.6825 61.1286 66.9129 60.4124C67.0698 59.9221 67.3586 59.4837 67.554 59.0068C68.337 57.0975 67.5907 54.6561 68.8562 53.0313C69.7311 51.9018 71.2654 51.5805 72.5126 50.8844C73.7931 50.1682 74.7832 49.0437 75.8985 48.0833C78.0868 46.2209 80.7608 45.0243 83.6052 44.6345C84.4349 45.9463 84.9393 47.4381 85.0761 48.9852C85.1612 49.9574 85.0994 50.943 85.2347 51.9102C85.42 53.2204 85.9609 54.4503 86.4969 55.6618C88.7291 60.7136 90.9696 65.7804 93.7979 70.5243C94.5976 71.863 95.4674 73.2017 96.6261 74.2441C97.7848 75.2866 99.4527 76.0313 101.009 75.9576Z" fill="#FF5856"/>
<path opacity="0.1" d="M101.009 75.9576C102.892 76.0764 104.722 75.1093 106.017 73.7421C107.313 72.375 108.168 70.6415 108.891 68.8895C109.93 66.3922 110.756 63.811 111.36 61.1737C111.861 58.9315 112.217 56.6106 111.871 54.3382C111.393 51.2007 109.622 48.3493 109.32 45.1901C109.268 44.6379 109.301 43.992 109.744 43.659C110.018 43.4531 110.378 43.4247 110.719 43.4046C113.868 43.2172 117.327 43.2523 119.766 45.2553C120.509 45.8644 121.112 46.6258 121.838 47.2533C123.568 48.7593 126.012 49.5257 127.122 51.5253C127.51 52.2214 127.695 53.0095 127.966 53.7592C128.603 55.5329 129.707 57.0925 130.804 58.6269C129.74 63.1248 128.518 67.6261 127.455 72.124C126.832 74.7629 126.204 77.4118 125.226 79.9385C124.585 81.5951 123.778 83.2852 123.975 85.0589C124.054 85.7567 124.286 86.4243 124.488 87.097C125.196 89.458 125.528 91.9163 125.471 94.381L77.8318 94.4982C80.1141 91.2184 80.7836 87.1957 80.5515 83.2048C80.4397 81.2922 80.0089 79.3679 79.0489 77.713C77.5363 75.1193 74.875 73.4292 72.2521 71.9818C70.4156 70.9778 68.4439 76.627 66.4587 75.9794C66.7793 73.707 66.9262 64.9354 66.7927 62.6479C66.7492 61.8983 66.6825 61.1286 66.9129 60.4124C67.0698 59.9221 67.3586 59.4837 67.554 59.0068C68.337 57.0975 67.5907 54.6561 68.8562 53.0313C69.7311 51.9018 71.2654 51.5805 72.5126 50.8844C73.7931 50.1682 74.7832 49.0437 75.8985 48.0833C78.0868 46.2209 80.7608 45.0243 83.6052 44.6345C84.4349 45.9463 84.9393 47.4381 85.0761 48.9852C85.1612 49.9574 85.0994 50.943 85.2347 51.9102C85.42 53.2204 85.9609 54.4503 86.4969 55.6618C88.7291 60.7136 90.9696 65.7804 93.7979 70.5243C94.5976 71.863 95.4674 73.2017 96.6261 74.2441C97.7848 75.2866 99.4527 76.0313 101.009 75.9576Z" fill="black"/>
<path d="M98.4892 41.5773C106.393 41.5773 112.801 35.1554 112.801 27.2335C112.801 19.3116 106.393 12.8897 98.4892 12.8897C90.5852 12.8897 84.1777 19.3116 84.1777 27.2335C84.1777 35.1554 90.5852 41.5773 98.4892 41.5773Z" fill="#EFB7B9"/>
<path d="M90.9795 46.348C91.3719 42.6365 89.8325 39.0054 88.0895 35.7073C87.2547 34.131 86.3598 32.5597 85.9408 30.8278C85.5217 29.0959 85.6419 27.1348 86.7138 25.7108C87.6254 24.4993 89.0712 23.845 90.4085 23.1339C94.1834 21.1258 97.6344 18.1741 99.2939 14.2267C98.3557 14.7387 98.5994 16.2665 99.4275 16.9408C100.256 17.6152 101.384 17.7457 102.403 18.067C106.116 19.2383 108.343 22.9498 110.129 26.4169C110.422 26.9825 110.719 27.5799 110.715 28.2174C110.712 28.855 110.422 29.4206 110.118 29.9627C109.236 31.5357 108.158 33.0467 107.757 34.8054C107.298 36.8134 107.782 38.9251 108.411 40.8946C109.079 42.9896 109.966 45.1014 111.569 46.604C113.171 48.1067 115.657 48.853 117.629 47.8825C115.661 44.4906 113.622 40.7005 114.39 36.8552C114.761 35.0145 115.758 33.3412 116.182 31.5106C116.99 28.0183 115.644 24.4257 114.323 21.0924L110.377 11.1444C109.774 9.62335 109.088 8.00022 107.705 7.13845C106.77 6.55781 105.638 6.40721 104.543 6.30179C101.017 5.9872 97.3639 6.09095 94.0816 7.40619C88.1012 9.80073 84.3513 15.7042 81.3762 21.4304C80.4846 23.1456 79.6048 24.9678 79.6415 26.9022C79.6615 27.9631 79.957 28.9955 80.1975 30.0297C81.1758 34.2398 81.2292 38.6021 81.2793 42.9244C81.3177 46.2409 81.1458 49.3667 79.6983 52.3871C81.6817 52.782 84.5584 53.8479 86.5218 53.0681C89.0812 52.0541 90.6573 48.93 90.9795 46.348Z" fill="#454B69"/>
<g opacity="0.1">
<path opacity="0.1" d="M81.2711 42.8541C81.2778 42.3822 81.2778 41.9058 81.2711 41.425C81.2211 37.1028 81.1676 32.7404 80.1893 28.5303C79.9707 27.711 79.8001 26.8796 79.6784 26.0404C79.644 26.3286 79.629 26.6187 79.6333 26.9089C79.6533 27.9698 79.9488 29.0022 80.1893 30.0363C81.1626 34.2213 81.2227 38.5569 81.2711 42.8541Z" fill="black"/>
<path opacity="0.1" d="M116.182 31.5105C116.401 30.5328 116.474 29.5279 116.399 28.5287C116.366 29.0257 116.294 29.5192 116.182 30.0045C115.758 31.8452 114.761 33.5035 114.39 35.3492C114.231 36.1632 114.186 36.9958 114.257 37.8224C114.283 37.4977 114.328 37.1748 114.39 36.8552C114.761 35.0095 115.758 33.3445 116.182 31.5105Z" fill="black"/>
<path opacity="0.1" d="M110.585 27.4493C110.667 27.2117 110.711 26.9627 110.716 26.7114C110.716 26.0739 110.422 25.4765 110.129 24.9109C108.343 21.4438 106.123 17.7356 102.403 16.561C101.384 16.2397 100.257 16.1092 99.4276 15.4348C99.214 15.2505 99.0394 15.0253 98.9138 14.7725C98.7882 14.5196 98.7143 14.2442 98.6963 13.9623C96.8865 17.2922 93.7778 19.839 90.4086 21.6278C89.0729 22.339 87.6254 22.9933 86.7138 24.2048C85.8574 25.3426 85.6086 26.8235 85.7572 28.2559C85.8414 27.3366 86.1719 26.4572 86.7138 25.7108C87.6254 24.4993 89.0713 23.845 90.4086 23.1338C93.7778 21.345 96.8865 18.7982 98.6963 15.4683C98.7143 15.7502 98.7882 16.0256 98.9138 16.2785C99.0394 16.5313 99.214 16.7565 99.4276 16.9408C100.262 17.6101 101.384 17.7457 102.403 18.067C106.116 19.2383 108.343 22.9498 110.129 26.4169C110.311 26.7474 110.463 27.0928 110.585 27.4493Z" fill="black"/>
<path opacity="0.1" d="M111.569 45.098C109.966 43.592 109.083 41.4836 108.412 39.3886C108.009 38.2117 107.74 36.9931 107.61 35.7558C107.455 37.4743 107.881 39.233 108.412 40.8946C109.079 42.9896 109.966 45.1013 111.569 46.604C113.172 48.1066 115.658 48.8529 117.629 47.8824C117.392 47.4758 117.157 47.0625 116.923 46.6458C115.092 47.1629 112.988 46.4266 111.569 45.098Z" fill="black"/>
<path opacity="0.1" d="M90.9796 44.842C90.6573 47.4239 89.0813 50.548 86.5152 51.5688C84.7337 52.2766 82.1977 51.4634 80.2626 51.0132C80.0961 51.4829 79.9055 51.9437 79.6917 52.3937C81.6751 52.7886 84.5518 53.8546 86.5152 53.0748C89.0813 52.054 90.6573 48.9299 90.9796 46.348C91.046 45.702 91.0583 45.0516 91.0163 44.4036C91.0063 44.5491 90.9913 44.6964 90.9796 44.842Z" fill="black"/>
</g>
<path d="M111.21 86.3306C108.63 85.9206 106.012 85.1292 103.455 85.6613C101.972 85.9692 100.616 86.7088 99.3843 87.6023C100.062 88.1462 100.853 88.6314 101.284 89.3878C101.552 89.9111 101.752 90.466 101.882 91.0394C102.152 92.0434 102.425 93.0674 102.466 94.1116C102.508 95.1558 102.299 96.2434 101.678 97.0851C104.931 97.4064 108.083 96.6032 111.255 95.8184C111.618 95.7546 111.963 95.6149 112.268 95.4084C112.769 95.0135 112.916 94.3107 112.919 93.6698C112.919 92.5253 112.599 91.4092 112.273 90.3115C111.886 88.9945 111.599 87.6392 111.21 86.3306Z" fill="white"/>
<path d="M128.627 58.1065C129.907 58.2738 130.901 59.3096 131.632 60.3739C133.684 63.3357 134.569 66.9266 135.554 70.3955C136.778 74.7093 138.218 78.9551 139.873 83.1329C140.229 84.0977 140.662 85.0322 141.168 85.9273C141.581 86.6184 142.082 87.2827 142.264 88.0675C142.704 89.9651 141.143 91.7489 139.516 92.8064C138.648 93.3926 137.7 93.8502 136.702 94.1651C135.731 94.4563 134.717 94.5667 133.71 94.6772L124.443 95.6812C120.177 96.1464 115.873 96.6116 111.605 96.1631C111.337 95.226 111.864 94.5634 111.826 93.5878C111.799 92.8901 111.492 92.2408 111.218 91.5983C110.713 90.4538 110.38 89.241 110.228 87.9989C110.18 87.5421 110.163 87.0736 109.989 86.6485C109.816 86.2235 109.443 85.842 108.988 85.8119C111.492 85.5625 113.394 85.089 115.898 84.838C116.828 84.7443 117.795 84.6389 118.588 84.1436C119.571 83.5294 120.122 82.4217 120.559 81.3474C121.643 78.6868 122.341 75.7551 121.771 72.9372C121.304 70.6264 120 68.4745 120.007 66.1167C120.007 64.7128 120.484 63.3524 121.049 62.0673C121.646 60.7085 122.426 59.3197 123.738 58.6302C125.05 57.9408 127.146 57.9057 128.627 58.1065Z" fill="#FF5856"/>
<path opacity="0.08" d="M128.627 58.1065C129.907 58.2738 130.901 59.3096 131.632 60.3739C133.684 63.3357 134.569 66.9266 135.554 70.3955C136.778 74.7093 138.218 78.9551 139.873 83.1329C140.229 84.0977 140.662 85.0322 141.168 85.9273C141.581 86.6184 142.082 87.2827 142.264 88.0675C142.704 89.9651 141.143 91.7489 139.516 92.8064C138.648 93.3926 137.7 93.8502 136.702 94.1651C135.731 94.4563 134.717 94.5667 133.71 94.6772L124.443 95.6812C120.177 96.1464 115.873 96.6116 111.605 96.1631C111.337 95.226 111.864 94.5634 111.826 93.5878C111.799 92.8901 111.492 92.2408 111.218 91.5983C110.713 90.4538 110.38 89.241 110.228 87.9989C110.18 87.5421 110.163 87.0736 109.989 86.6485C109.816 86.2235 109.443 85.842 108.988 85.8119C111.492 85.5625 113.394 85.089 115.898 84.838C116.828 84.7443 117.795 84.6389 118.588 84.1436C119.571 83.5294 120.122 82.4217 120.559 81.3474C121.643 78.6868 122.341 75.7551 121.771 72.9372C121.304 70.6264 120 68.4745 120.007 66.1167C120.007 64.7128 120.484 63.3524 121.049 62.0673C121.646 60.7085 122.426 59.3197 123.738 58.6302C125.05 57.9408 127.146 57.9057 128.627 58.1065Z" fill="black"/>
<path d="M70.5908 55.9328C71.1968 54.4904 71.8129 53.0012 71.8296 51.4366C71.848 49.7449 71.1618 48.1385 70.6375 46.5321C69.9892 44.5666 69.5576 42.5359 69.3503 40.4763C69.3073 40.279 69.3369 40.0727 69.4338 39.8956C69.5723 39.6998 69.8395 39.6597 70.0749 39.6078C71.2302 39.3434 72.1034 38.408 72.8247 37.4659C73.9436 36.011 74.8884 34.4295 75.6395 32.7538C76.1922 31.5206 76.9401 30.0163 78.2891 30.0045C77.746 32.5613 77.0729 35.0885 76.2723 37.5764C77.6831 37.2149 79.0238 36.6895 80.4345 36.3281C80.7107 36.2407 81 36.2022 81.2894 36.2143C82.1342 36.303 82.6517 37.4492 82.1609 38.1436C82.8504 38.9535 83.9974 39.1711 84.899 39.7266C85.8005 40.2822 86.4483 41.6576 85.6469 42.3554C85.49 42.491 85.2913 42.5863 85.1778 42.7604C84.7904 43.3594 85.7387 44.0472 85.6603 44.7567C85.5968 45.3373 84.8539 45.6084 84.2912 45.4544C83.7286 45.3005 83.2895 44.8788 82.7886 44.5692C82.2878 44.2597 81.6333 44.0672 81.1474 44.3885C81.0172 45.9631 80.877 47.5679 80.1975 49.0019C79.9487 49.5257 79.6298 50.0159 79.4295 50.5598C79.2378 51.1528 79.119 51.7669 79.0755 52.3887L78.4695 57.9425C75.5778 58.5232 72.9849 57.6547 70.5908 55.9328Z" fill="#EFB7B9"/>
<path d="M69.8846 60.911L69.352 57.2983C69.3011 57.0041 69.2726 56.7065 69.2668 56.4081C69.2668 55.5714 69.6341 54.7732 69.9898 54.0118C72.9365 55.3907 76.1221 55.881 79.3727 55.8826C79.8018 55.8826 80.291 55.8425 80.5581 55.5061C81.1107 56.1437 81.1274 57.1694 80.892 57.9793C80.6566 58.7892 80.2042 59.5188 79.9036 60.3086C79.7517 60.7085 79.6282 61.1453 79.3377 61.4532C78.8869 61.9401 78.1556 62.0238 77.4911 62.0204C76.7921 62.016 76.0948 61.9494 75.4075 61.8213C73.6278 61.49 71.6643 60.5914 69.8846 60.911Z" fill="white"/>
<path d="M80.8754 60.7637C78.5881 60.5027 76.3158 60.1346 74.0586 59.6593C72.9516 59.4267 71.8347 59.1674 70.7061 59.2126C69.9715 59.2427 69.1818 59.3899 68.5356 59.0251C69.1651 61.172 69.2035 63.4344 68.4505 65.5411C68.0047 66.7961 67.3252 67.9658 66.998 69.2576C66.3168 71.96 67.2517 74.9068 66.4003 77.5607C66.3102 77.9075 66.1332 78.2254 65.886 78.4843C65.6256 78.7236 65.27 78.8475 65.0296 79.1068C64.6756 79.4883 64.6539 80.0623 64.6522 80.5827L64.6372 85.1927C64.6272 88.1278 64.6656 91.2402 66.2116 93.7267C67.9747 96.5714 71.6861 98.0456 74.9167 97.1805C75.7757 96.9604 76.5804 96.5657 77.2808 96.0209C78.4028 95.1273 79.1173 93.8355 79.8169 92.5772C80.6517 91.0712 81.4864 89.5317 81.7552 87.8366C81.9456 86.6368 81.8387 85.4119 81.7018 84.2055C80.9472 77.5121 79.3093 70.8757 79.6616 64.1573C79.7144 62.9291 80.1376 61.7458 80.8754 60.7637Z" fill="#FF5856"/>
<path d="M90.4352 88.5411C89.2749 88.608 88.1062 88.675 86.9508 88.5411C86.1161 88.4407 85.3013 88.2349 84.4732 88.0943C82.2117 87.7282 79.8979 87.857 77.6906 88.4716C75.4834 89.0863 73.435 90.1723 71.686 91.6552C71.0449 92.204 70.3971 93.0457 70.7511 93.8138C71.1317 94.6404 72.2954 94.617 73.192 94.463C72.2242 94.9262 71.3694 95.5962 70.6876 96.4258C70.4372 96.732 70.2001 97.0952 70.2485 97.4917C70.3504 98.32 71.4723 98.4706 72.3021 98.3987C72.0316 98.6898 72.2136 99.2052 72.5575 99.4027C72.9015 99.6001 73.3289 99.56 73.7179 99.488C74.5779 99.3302 75.4089 99.0418 76.1822 98.6329C76.0252 99.0429 76.2974 99.5232 76.683 99.7273C77.0687 99.9315 77.5378 99.9164 77.9703 99.8461C80.0105 99.5114 81.7134 98.0891 83.7035 97.5302C86.8857 96.6383 90.2148 98.0607 93.5223 98.1611C94.5574 98.1929 95.6192 98.0874 96.5625 97.6591C97.7195 97.132 98.6528 96.143 99.875 95.7916C101.232 95.4034 102.79 95.8502 104.032 95.1792C104.935 94.6923 104.121 90.939 103.89 90.2161C103.468 88.8942 103.044 88.0173 101.636 87.8835C98.0752 87.5337 94.0231 88.3336 90.4352 88.5411Z" fill="#EFB7B9"/>
<path d="M99.3191 87.517C99.3191 87.517 104.71 92.0903 101.6 97.0801L107.61 95.0002V90.6345C107.61 90.427 105.328 87.3096 105.328 87.3096L102.632 86.8929L99.3191 87.517Z" fill="white"/>
<path d="M42.8727 87.2342H44.8945C46.0015 87.2342 47.0631 87.675 47.8459 88.4595C48.6287 89.244 49.0684 90.3081 49.0684 91.4176V97.6273H38.6987V91.4176C38.6987 90.8682 38.8067 90.3242 39.0165 89.8167C39.2262 89.3091 39.5337 88.848 39.9212 88.4595C40.3088 88.071 40.769 87.7629 41.2754 87.5527C41.7818 87.3424 42.3245 87.2342 42.8727 87.2342Z" fill="#3F3D56"/>
<path opacity="0.1" d="M42.8727 87.2342H44.8945C46.0015 87.2342 47.0631 87.675 47.8459 88.4595C48.6287 89.244 49.0684 90.3081 49.0684 91.4176V97.6273H38.6987V91.4176C38.6987 90.8682 38.8067 90.3242 39.0165 89.8167C39.2262 89.3091 39.5337 88.848 39.9212 88.4595C40.3088 88.071 40.769 87.7629 41.2754 87.5527C41.7818 87.3424 42.3245 87.2342 42.8727 87.2342Z" fill="black"/>
<path d="M43.4687 89.52C43.927 89.52 44.2985 89.1476 44.2985 88.6883C44.2985 88.229 43.927 87.8567 43.4687 87.8567C43.0104 87.8567 42.6389 88.229 42.6389 88.6883C42.6389 89.1476 43.0104 89.52 43.4687 89.52Z" fill="#3F3D56"/>
<path d="M43.4687 88.4809C43.927 88.4809 44.2985 88.1085 44.2985 87.6492C44.2985 87.1899 43.927 86.8176 43.4687 86.8176C43.0104 86.8176 42.6389 87.1899 42.6389 87.6492C42.6389 88.1085 43.0104 88.4809 43.4687 88.4809Z" fill="#3F3D56"/>
<path d="M43.4687 87.4417C43.927 87.4417 44.2985 87.0694 44.2985 86.6101C44.2985 86.1508 43.927 85.7784 43.4687 85.7784C43.0104 85.7784 42.6389 86.1508 42.6389 86.6101C42.6389 87.0694 43.0104 87.4417 43.4687 87.4417Z" fill="#3F3D56"/>
<path d="M43.4687 86.4026C43.927 86.4026 44.2985 86.0302 44.2985 85.5709C44.2985 85.1116 43.927 84.7393 43.4687 84.7393C43.0104 84.7393 42.6389 85.1116 42.6389 85.5709C42.6389 86.0302 43.0104 86.4026 43.4687 86.4026Z" fill="#3F3D56"/>
<path d="M43.4687 85.3634C43.927 85.3634 44.2985 84.9911 44.2985 84.5318C44.2985 84.0725 43.927 83.7001 43.4687 83.7001C43.0104 83.7001 42.6389 84.0725 42.6389 84.5318C42.6389 84.9911 43.0104 85.3634 43.4687 85.3634Z" fill="#3F3D56"/>
<path d="M43.4687 84.3243C43.927 84.3243 44.2985 83.952 44.2985 83.4927C44.2985 83.0334 43.927 82.661 43.4687 82.661C43.0104 82.661 42.6389 83.0334 42.6389 83.4927C42.6389 83.952 43.0104 84.3243 43.4687 84.3243Z" fill="#3F3D56"/>
<path d="M43.4687 83.2835C43.927 83.2835 44.2985 82.9111 44.2985 82.4518C44.2985 81.9925 43.927 81.6202 43.4687 81.6202C43.0104 81.6202 42.6389 81.9925 42.6389 82.4518C42.6389 82.9111 43.0104 83.2835 43.4687 83.2835Z" fill="#3F3D56"/>
<path d="M44.7143 83.7001C45.1726 83.7001 45.5441 83.3278 45.5441 82.8685C45.5441 82.4092 45.1726 82.0369 44.7143 82.0369C44.256 82.0369 43.8845 82.4092 43.8845 82.8685C43.8845 83.3278 44.256 83.7001 44.7143 83.7001Z" fill="#3F3D56"/>
<path d="M45.5441 83.2835C46.0024 83.2835 46.3739 82.9111 46.3739 82.4518C46.3739 81.9925 46.0024 81.6202 45.5441 81.6202C45.0859 81.6202 44.7144 81.9925 44.7144 82.4518C44.7144 82.9111 45.0859 83.2835 45.5441 83.2835Z" fill="#3F3D56"/>
<path d="M46.3737 82.8685C46.832 82.8685 47.2035 82.4962 47.2035 82.0369C47.2035 81.5776 46.832 81.2052 46.3737 81.2052C45.9154 81.2052 45.5439 81.5776 45.5439 82.0369C45.5439 82.4962 45.9154 82.8685 46.3737 82.8685Z" fill="#3F3D56"/>
<path d="M43.4687 82.2443C43.927 82.2443 44.2985 81.872 44.2985 81.4127C44.2985 80.9534 43.927 80.5811 43.4687 80.5811C43.0104 80.5811 42.6389 80.9534 42.6389 81.4127C42.6389 81.872 43.0104 82.2443 43.4687 82.2443Z" fill="#3F3D56"/>
<path d="M43.4687 81.2052C43.927 81.2052 44.2985 80.8329 44.2985 80.3736C44.2985 79.9142 43.927 79.5419 43.4687 79.5419C43.0104 79.5419 42.6389 79.9142 42.6389 80.3736C42.6389 80.8329 43.0104 81.2052 43.4687 81.2052Z" fill="#3F3D56"/>
<path d="M43.4687 80.1661C43.927 80.1661 44.2985 79.7937 44.2985 79.3344C44.2985 78.8751 43.927 78.5028 43.4687 78.5028C43.0104 78.5028 42.6389 78.8751 42.6389 79.3344C42.6389 79.7937 43.0104 80.1661 43.4687 80.1661Z" fill="#3F3D56"/>
<path d="M43.4687 79.1269C43.927 79.1269 44.2985 78.7546 44.2985 78.2953C44.2985 77.836 43.927 77.4636 43.4687 77.4636C43.0104 77.4636 42.6389 77.836 42.6389 78.2953C42.6389 78.7546 43.0104 79.1269 43.4687 79.1269Z" fill="#3F3D56"/>
<path d="M46.9148 75.6129C46.7077 75.643 46.5007 75.6648 46.2937 75.6782C46.4861 75.5099 46.6648 75.3263 46.8279 75.1293C46.713 74.7799 46.544 74.4507 46.3271 74.1538C46.1214 74.2696 45.894 74.3414 45.6592 74.3646C45.4539 74.3947 45.2469 74.4165 45.0398 74.4316C45.312 74.209 45.5657 73.8743 45.8329 73.5949C45.2344 73.0512 44.4676 72.7302 43.6611 72.6856C42.8545 72.641 42.0572 72.8756 41.4027 73.35C40.7482 73.8245 40.2762 74.51 40.0659 75.2916C39.8555 76.0733 39.9196 76.9036 40.2474 77.6436C40.5751 78.3835 41.1466 78.9881 41.8662 79.356C42.5857 79.724 43.4095 79.8329 44.1997 79.6645C44.9898 79.4962 45.6981 79.0608 46.2061 78.4313C46.7141 77.8019 46.9908 77.0165 46.9899 76.207C46.9899 76.0033 46.9721 75.8 46.9365 75.5995L46.9148 75.6129Z" fill="#FF5856"/>
<path d="M49.6813 79.7444C49.4697 79.8748 49.2308 79.9545 48.9834 79.977C48.778 80.0071 48.571 80.0305 48.364 80.0439C48.584 79.8461 48.7894 79.6324 48.9784 79.4047C48.4781 79.274 47.9471 79.3349 47.4893 79.5757C47.0315 79.8165 46.6798 80.2197 46.5028 80.7066C46.3259 81.1935 46.3365 81.729 46.5326 82.2085C46.7287 82.6879 47.0962 83.0769 47.5632 83.2992C48.0302 83.5216 48.5631 83.5613 49.0578 83.4108C49.5525 83.2603 49.9734 82.9302 50.2382 82.4851C50.503 82.0401 50.5927 81.5121 50.4897 81.0043C50.3867 80.4965 50.0984 80.0454 49.6813 79.7393V79.7444Z" fill="#FF5856"/>
<path d="M42.225 83.7001C42.6833 83.7001 43.0548 83.3278 43.0548 82.8685C43.0548 82.4092 42.6833 82.0369 42.225 82.0369C41.7668 82.0369 41.3953 82.4092 41.3953 82.8685C41.3953 83.3278 41.7668 83.7001 42.225 83.7001Z" fill="#3F3D56"/>
<path d="M41.3952 83.2835C41.8535 83.2835 42.225 82.9111 42.225 82.4518C42.225 81.9925 41.8535 81.6202 41.3952 81.6202C40.9369 81.6202 40.5654 81.9925 40.5654 82.4518C40.5654 82.9111 40.9369 83.2835 41.3952 83.2835Z" fill="#3F3D56"/>
<path d="M40.5654 82.8685C41.0236 82.8685 41.3951 82.4962 41.3951 82.0369C41.3951 81.5776 41.0236 81.2052 40.5654 81.2052C40.1071 81.2052 39.7356 81.5776 39.7356 82.0369C39.7356 82.4962 40.1071 82.8685 40.5654 82.8685Z" fill="#3F3D56"/>
<path d="M37.258 79.7444C37.4696 79.8748 37.7085 79.9545 37.9559 79.977C38.1613 80.0071 38.3683 80.0305 38.5753 80.0439C38.3549 79.8465 38.1495 79.6328 37.9609 79.4047C38.4612 79.274 38.9921 79.3349 39.4499 79.5757C39.9078 79.8165 40.2595 80.2197 40.4364 80.7066C40.6134 81.1935 40.6028 81.729 40.4067 82.2085C40.2106 82.6879 39.8431 83.0769 39.3761 83.2992C38.9091 83.5216 38.3762 83.5613 37.8815 83.4108C37.3868 83.2603 36.9659 82.9302 36.7011 82.4851C36.4363 82.0401 36.3466 81.5121 36.4496 81.0043C36.5526 80.4965 36.8409 80.0454 37.258 79.7393V79.7444Z" fill="#FF5856"/>
<path d="M42.8728 87.85H44.8946C46.0016 87.85 47.0632 88.2908 47.846 89.0753C48.6288 89.8598 49.0685 90.9239 49.0685 92.0333V97.5336C49.0685 97.7218 48.9939 97.9022 48.8612 98.0353C48.7284 98.1683 48.5484 98.2431 48.3606 98.2431H39.4017C39.214 98.2431 39.0339 98.1683 38.9012 98.0353C38.7684 97.9022 38.6938 97.7218 38.6938 97.5336V92.0333C38.6938 91.4836 38.802 90.9392 39.012 90.4313C39.2221 89.9234 39.53 89.462 39.9181 89.0735C40.3062 88.685 40.767 88.3769 41.2739 88.167C41.7809 87.9571 42.3242 87.8493 42.8728 87.85Z" fill="#3F3D56"/>
<g opacity="0.1">
<path opacity="0.1" d="M46.9715 75.8405C46.8875 75.9304 46.7983 76.0154 46.7043 76.0948C46.7995 76.0948 46.893 76.0798 46.9882 76.0697C46.9848 75.9928 46.9798 75.9158 46.9715 75.8405Z" fill="black"/>
<path opacity="0.1" d="M45.4587 74.8465C45.6674 74.8332 45.8728 74.8114 46.0798 74.7813C46.2656 74.7577 46.4471 74.7081 46.6191 74.634C46.5346 74.4668 46.4375 74.3062 46.3286 74.1538C46.2247 74.2171 46.1123 74.2651 45.9947 74.296C45.831 74.4936 45.6517 74.6776 45.4587 74.8465Z" fill="black"/>
<path opacity="0.1" d="M40.3583 76.632C40.3571 75.9976 40.5266 75.3746 40.849 74.8286C41.1713 74.2826 41.6346 73.8339 42.1901 73.5297C42.7455 73.2255 43.3726 73.077 44.0051 73.1C44.6377 73.1229 45.2524 73.3164 45.7844 73.6601L45.8379 73.6032C45.4906 73.2936 45.0857 73.0559 44.6464 72.9038C44.2071 72.7517 43.7421 72.6882 43.2782 72.717C42.8143 72.7459 42.3607 72.8664 41.9435 73.0717C41.5263 73.277 41.1537 73.5631 40.8473 73.9133C40.5409 74.2636 40.3067 74.6712 40.1582 75.1126C40.0096 75.554 39.9497 76.0205 39.9818 76.4852C40.014 76.9499 40.1375 77.4036 40.3454 77.8203C40.5533 78.2369 40.8414 78.6082 41.1931 78.9127C40.6532 78.2761 40.3572 77.4675 40.3583 76.632Z" fill="black"/>
</g>
<g opacity="0.1">
<path opacity="0.1" d="M48.3638 80.4589C48.5708 80.4455 48.7778 80.4238 48.9832 80.3937C49.2307 80.3706 49.4696 80.2904 49.6811 80.1594C49.9155 80.3324 50.1109 80.5529 50.2548 80.8066C50.3986 81.0603 50.4875 81.3415 50.5158 81.6319C50.5239 81.5591 50.5278 81.4859 50.5275 81.4127C50.5291 81.0877 50.4544 80.7669 50.3093 80.4762C50.1643 80.1855 49.9531 79.9331 49.6927 79.7394C49.4811 79.8699 49.2423 79.9495 48.9949 79.972L48.8279 79.9937C48.6854 80.1606 48.5303 80.3161 48.3638 80.4589Z" fill="black"/>
<path opacity="0.1" d="M48.4474 79.7494C48.5166 79.7502 48.5858 79.7552 48.6544 79.7645C48.7629 79.649 48.8698 79.5252 48.9783 79.4047C48.6714 79.3225 48.3497 79.3123 48.0381 79.3747C47.7266 79.4371 47.4336 79.5706 47.1818 79.7647C46.93 79.9589 46.7261 80.2085 46.586 80.4943C46.4459 80.78 46.3733 81.0943 46.3738 81.4127C46.3738 81.483 46.3738 81.5516 46.3838 81.6202C46.4351 81.1074 46.6747 80.6321 47.056 80.2864C47.4373 79.9407 47.9332 79.7493 48.4474 79.7494Z" fill="black"/>
</g>
<g opacity="0.1">
<path opacity="0.1" d="M38.5754 80.4589C38.3684 80.4455 38.1613 80.4238 37.956 80.3937C37.7084 80.3706 37.4696 80.2904 37.2581 80.1594C37.0237 80.3324 36.8282 80.5529 36.6844 80.8066C36.5406 81.0603 36.4516 81.3415 36.4233 81.6319C36.4152 81.5591 36.4113 81.4859 36.4116 81.4127C36.4101 81.0877 36.4848 80.7669 36.6298 80.4762C36.7749 80.1855 36.9861 79.9331 37.2464 79.7394C37.458 79.8699 37.6969 79.9495 37.9443 79.972L38.1113 79.9937C38.2528 80.1614 38.4081 80.317 38.5754 80.4589Z" fill="black"/>
<path opacity="0.1" d="M38.4919 79.7494C38.4221 79.7503 38.3524 79.7553 38.2832 79.7645C38.1763 79.649 38.0695 79.5252 37.9609 79.4047C38.2679 79.3225 38.5896 79.3123 38.9011 79.3747C39.2126 79.4371 39.5056 79.5706 39.7575 79.7647C40.0093 79.9589 40.2131 80.2085 40.3532 80.4943C40.4934 80.78 40.566 81.0943 40.5654 81.4127C40.5654 81.483 40.5655 81.5516 40.5554 81.6202C40.5041 81.1074 40.2645 80.6321 39.8832 80.2864C39.5019 79.9407 39.006 79.7493 38.4919 79.7494Z" fill="black"/>
</g>
<path d="M32.8654 100.254H16.5537C16.3699 100.254 16.1937 100.181 16.0638 100.051C15.9338 99.9208 15.8608 99.7441 15.8608 99.56V91.8225C15.8608 91.7053 15.8904 91.59 15.9468 91.4873C16.0032 91.3847 16.0846 91.298 16.1834 91.2354C16.2822 91.1727 16.3952 91.1362 16.512 91.1291C16.6287 91.1221 16.7453 91.1447 16.8509 91.195C21.5374 93.4239 26.5861 94.1886 32.5448 91.2301C32.6504 91.1779 32.7676 91.1535 32.8852 91.1591C33.0028 91.1648 33.1171 91.2003 33.2173 91.2624C33.3175 91.3244 33.4002 91.411 33.4578 91.514C33.5154 91.617 33.546 91.7329 33.5465 91.8509V99.5483C33.5481 99.6394 33.5317 99.7301 33.4983 99.8149C33.4649 99.8998 33.4152 99.9772 33.3519 100.043C33.2886 100.108 33.2131 100.161 33.1296 100.197C33.0462 100.233 32.9564 100.253 32.8654 100.254Z" fill="#FF5856"/>
<path opacity="0.1" d="M32.8654 100.254H16.5537C16.3699 100.254 16.1937 100.181 16.0638 100.051C15.9338 99.9208 15.8608 99.7441 15.8608 99.56V91.8225C15.8608 91.7053 15.8904 91.59 15.9468 91.4873C16.0032 91.3847 16.0846 91.298 16.1834 91.2354C16.2822 91.1727 16.3952 91.1362 16.512 91.1291C16.6287 91.1221 16.7453 91.1447 16.8509 91.195C21.5374 93.4239 26.5861 94.1886 32.5448 91.2301C32.6504 91.1779 32.7676 91.1535 32.8852 91.1591C33.0028 91.1648 33.1171 91.2003 33.2173 91.2624C33.3175 91.3244 33.4002 91.411 33.4578 91.514C33.5154 91.617 33.546 91.7329 33.5465 91.8509V99.5483C33.5481 99.6394 33.5317 99.7301 33.4983 99.8149C33.4649 99.8998 33.4152 99.9772 33.3519 100.043C33.2886 100.108 33.2131 100.161 33.1296 100.197C33.0462 100.233 32.9564 100.253 32.8654 100.254Z" fill="black"/>
<path d="M24.5961 94.3727C25.1291 94.3727 25.5611 93.8055 25.5611 93.1059C25.5611 92.4064 25.1291 91.8392 24.5961 91.8392C24.0632 91.8392 23.6311 92.4064 23.6311 93.1059C23.6311 93.8055 24.0632 94.3727 24.5961 94.3727Z" fill="#3F3D56"/>
<path d="M24.5961 92.8248C25.1291 92.8248 25.5611 92.2577 25.5611 91.5581C25.5611 90.8585 25.1291 90.2914 24.5961 90.2914C24.0632 90.2914 23.6311 90.8585 23.6311 91.5581C23.6311 92.2577 24.0632 92.8248 24.5961 92.8248Z" fill="#3F3D56"/>
<path d="M24.5961 91.2753C25.1291 91.2753 25.5611 90.7082 25.5611 90.0086C25.5611 89.309 25.1291 88.7419 24.5961 88.7419C24.0632 88.7419 23.6311 89.309 23.6311 90.0086C23.6311 90.7082 24.0632 91.2753 24.5961 91.2753Z" fill="#3F3D56"/>
<path d="M24.5961 89.7275C25.1291 89.7275 25.5611 89.1604 25.5611 88.4608C25.5611 87.7612 25.1291 87.1941 24.5961 87.1941C24.0632 87.1941 23.6311 87.7612 23.6311 88.4608C23.6311 89.1604 24.0632 89.7275 24.5961 89.7275Z" fill="#3F3D56"/>
<path d="M24.5961 88.178C25.1291 88.178 25.5611 87.6109 25.5611 86.9113C25.5611 86.2117 25.1291 85.6446 24.5961 85.6446C24.0632 85.6446 23.6311 86.2117 23.6311 86.9113C23.6311 87.6109 24.0632 88.178 24.5961 88.178Z" fill="#3F3D56"/>
<path d="M24.5961 86.6285C25.1291 86.6285 25.5611 86.0614 25.5611 85.3618C25.5611 84.6622 25.1291 84.095 24.5961 84.095C24.0632 84.095 23.6311 84.6622 23.6311 85.3618C23.6311 86.0614 24.0632 86.6285 24.5961 86.6285Z" fill="#3F3D56"/>
<path d="M24.5961 85.0807C25.1291 85.0807 25.5611 84.5135 25.5611 83.8139C25.5611 83.1143 25.1291 82.5472 24.5961 82.5472C24.0632 82.5472 23.6311 83.1143 23.6311 83.8139C23.6311 84.5135 24.0632 85.0807 24.5961 85.0807Z" fill="#3F3D56"/>
<path d="M28.2155 73.215C28.3465 73.0462 28.4664 72.869 28.5745 72.6846L26.0367 72.2662L28.7815 72.2863C29.0463 71.7113 29.1908 71.088 29.206 70.4548C29.2212 69.8217 29.1069 69.1921 28.87 68.605L25.1886 70.5193L28.5845 68.0093C28.2665 67.4581 27.8387 66.9785 27.3277 66.6003C26.8167 66.2222 26.2335 65.9535 25.6144 65.8111C24.9952 65.6687 24.3535 65.6556 23.7291 65.7726C23.1047 65.8896 22.5111 66.1342 21.9851 66.4913C21.4592 66.8483 21.0122 67.31 20.6721 67.8477C20.332 68.3854 20.106 68.9876 20.0083 69.6167C19.9105 70.2457 19.943 70.8882 20.1038 71.5041C20.2646 72.12 20.5502 72.6962 20.9429 73.1966C20.7366 73.458 20.5597 73.7414 20.4153 74.0416L23.7077 75.7752L20.2016 74.5872C19.9559 75.3174 19.8954 76.0975 20.0257 76.8571C20.156 77.6166 20.4729 78.3317 20.9479 78.9378C20.4112 79.6218 20.0773 80.4433 19.9844 81.3085C19.8915 82.1736 20.0434 83.0475 20.4228 83.8303C20.8021 84.613 21.3935 85.2729 22.1294 85.7346C22.8653 86.1964 23.716 86.4412 24.5842 86.4412C25.4524 86.4412 26.3031 86.1964 27.039 85.7346C27.7749 85.2729 28.3663 84.613 28.7457 83.8303C29.125 83.0475 29.2769 82.1736 29.184 81.3085C29.0912 80.4433 28.7573 79.6218 28.2205 78.9378C28.8618 78.1206 29.2104 77.1111 29.2104 76.0714C29.2104 75.0317 28.8618 74.0222 28.2205 73.205L28.2155 73.215Z" fill="#FF5856"/>
<path opacity="0.1" d="M19.9497 76.0815C19.9482 77.1214 20.297 78.1314 20.9398 78.9479C20.403 79.6318 20.0691 80.4534 19.9763 81.3185C19.8834 82.1837 20.0353 83.0576 20.4146 83.8403C20.7939 84.6231 21.3854 85.283 22.1213 85.7447C22.8572 86.2065 23.7079 86.4513 24.5761 86.4513C25.4443 86.4513 26.295 86.2065 27.0309 85.7447C27.7668 85.283 28.3582 84.6231 28.7375 83.8403C29.1169 83.0576 29.2688 82.1837 29.1759 81.3185C29.083 80.4534 28.7491 79.6318 28.2124 78.9479C28.8318 78.1597 19.9497 75.5611 19.9497 76.0815Z" fill="black"/>
<path d="M32.8654 100.664H16.5537C16.3699 100.664 16.1937 100.591 16.0638 100.461C15.9338 100.331 15.8608 100.154 15.8608 99.9699V91.8225C15.8608 91.7053 15.8904 91.59 15.9468 91.4873C16.0032 91.3847 16.0846 91.298 16.1834 91.2354C16.2822 91.1727 16.3952 91.1362 16.512 91.1291C16.6287 91.1221 16.7453 91.1447 16.8509 91.195C21.5374 93.4239 25.2538 96.0226 32.5448 91.2301C32.9772 90.9457 33.5466 91.3339 33.5466 91.8509V99.9666C33.5475 100.149 33.4765 100.325 33.3489 100.456C33.2214 100.586 33.0477 100.661 32.8654 100.664Z" fill="#FF5856"/>
<path d="M153.906 98.3602L129.841 101.551L128.637 101.71L116.871 95.4118V93.9376L153.638 89.9182L153.906 98.3602Z" fill="#9C9CA1"/>
<path d="M123.69 96.0811L149.76 93.0005L149.493 97.8247L129.186 99.3173L123.69 96.0811Z" fill="#939498"/>
<path opacity="0.4" d="M129.84 99.9666V101.55L128.637 101.717L116.87 95.4118V93.9376L128.101 99.9616C128.101 99.9616 129.573 100.1 129.84 99.9666Z" fill="black"/>
<path d="M134.46 74.8415L129.057 99.9499C129.003 100.201 129.01 100.462 129.077 100.71C129.144 100.959 129.27 101.187 129.444 101.376C129.618 101.565 129.835 101.71 130.076 101.797C130.317 101.885 130.576 101.913 130.831 101.879L165.011 97.3445C165.309 97.3052 165.59 97.1826 165.821 96.9909C166.053 96.7991 166.226 96.5459 166.32 96.2602L173.695 73.9714C173.776 73.7241 173.797 73.4606 173.754 73.2037C173.711 72.9468 173.607 72.7042 173.45 72.4967C173.293 72.2892 173.088 72.1231 172.852 72.0127C172.617 71.9023 172.358 71.8509 172.099 71.863L135.949 73.5832C135.598 73.5999 135.261 73.7322 134.992 73.9596C134.723 74.187 134.536 74.497 134.46 74.8415Z" fill="#3F3D56"/>
<path d="M153.242 84.1045C153.326 83.3049 152.978 82.6129 152.466 82.5589C151.953 82.5049 151.47 83.1093 151.386 83.9089C151.302 84.7085 151.649 85.4005 152.162 85.4545C152.675 85.5085 153.158 84.9041 153.242 84.1045Z" fill="white"/>
</svg>
